# xmcd
#
# Track frame offsets:
#	150
#	13494
#	28489
#	34441
#	48811
#	66075
#	79844
#	92172
#	105174
#	111180
#	121298
#	136343
#	152484
#	161005
#
# Disc length: 2345 seconds
# Revision: 1
# Processed by: cddbd v1.5.2PL0 Copyright (c) Steve Scherf et al.
# Submitted via: dBpowerAMP V12.0
#
DISCID=b709270e
DTITLE=Various Artist - In The Country
DYEAR=2013
DGENRE=Country
TTITLE0=John Brand - Mothers Chair
TTITLE1=Trevor Coombes - There Goes My Everything
TTITLE2=Joe  McManamon - Lights of My Life
TTITLE3=Trevor Coombes - Sing Me Back Home
TTITLE4=John Brand - Rose of Clare
TTITLE5=Joe  McManamon - Bakers Dozen
TTITLE6=John Brand - Old Rocking Chair
TTITLE7=Trevor Coombes - Missing in Action
TTITLE8=Joe  McManamon - My Ever Faithful Heart
TTITLE9=John Brand - Old Days to Which I Belong
TTITLE10=Trevor Coombes - When We First Fell in Love
TTITLE11=John Brand - Old Rugged Cross
TTITLE12=Joe  McManamon - My Fathers Hat
TTITLE13=John Brand - Leave Hime in The Longyard
EXTD=
EXTT0=
EXTT1=
EXTT2=
EXTT3=
EXTT4=
EXTT5=
EXTT6=
EXTT7=
EXTT8=
EXTT9=
EXTT10=
EXTT11=
EXTT12=
EXTT13=
PLAYORDER=
